<?xml version="1.0" encoding="UTF-8" standalone="no"?>
<!-- Created with Inkscape (http://www.inkscape.org/) -->

<svg
   width="67.445877mm"
   height="67.445877mm"
   viewBox="0 0 67.445877 67.445877"
   version="1.1"
   id="svg5"
   inkscape:version="1.1.2 (0a00cf5339, 2022-02-04)"
   sodipodi:docname="logo.svg"
   xmlns:inkscape="http://www.inkscape.org/namespaces/inkscape"
   xmlns:sodipodi="http://sodipodi.sourceforge.net/DTD/sodipodi-0.dtd"
   xmlns="http://www.w3.org/2000/svg"
   xmlns:svg="http://www.w3.org/2000/svg">
  <sodipodi:namedview
     id="namedview7"
     pagecolor="#ffffff"
     bordercolor="#111111"
     borderopacity="1"
     inkscape:pageshadow="0"
     inkscape:pageopacity="0"
     inkscape:pagecheckerboard="1"
     inkscape:document-units="mm"
     showgrid="false"
     inkscape:zoom="3.1108586"
     inkscape:cx="15.751279"
     inkscape:cy="136.93969"
     inkscape:window-width="2560"
     inkscape:window-height="1379"
     inkscape:window-x="0"
     inkscape:window-y="27"
     inkscape:window-maximized="1"
     inkscape:current-layer="layer1"
     fit-margin-top="0"
     fit-margin-left="0"
     fit-margin-right="0"
     fit-margin-bottom="0" />
  <defs
     id="defs2" />
  <g
     inkscape:label="Layer 1"
     inkscape:groupmode="layer"
     id="layer1"
     transform="translate(-102.31701,-84.37114)">
    <circle
       style="fill:#000000;fill-opacity:0.5;stroke:none;stroke-width:1;stroke-linecap:round;stroke-linejoin:bevel;stroke-miterlimit:4;stroke-dasharray:none;stroke-opacity:1"
       id="path13946"
       cx="136.03995"
       cy="118.09408"
       r="33.722939" />
    <path
       id="path846-6"
       style="color:#000000;fill:#000000;stroke-width:3.77953;stroke-linecap:round;stroke-linejoin:bevel;-inkscape-stroke:none"
       d="m 513.04102,320.73633 c -44.09351,0 -80.99592,31.09412 -90.28125,72.67187 -31.36752,28.8299 -39.84637,76.33794 -17.79883,114.52539 22.04676,38.18611 67.42806,54.59913 108.07812,41.85157 40.65202,12.75202 86.03779,-3.66114 108.08594,-41.84961 22.04824,-38.18869 13.56919,-85.69968 -17.80078,-114.5293 -9.28598,-41.57688 -46.19035,-72.66991 -90.2832,-72.66992 z m 0,3.77929 c 40.50307,0 74.64993,27.28855 85.30859,64.62696 -3.62686,-2.89101 -7.51321,-5.54973 -11.65234,-7.93946 -23.26009,-13.42921 -49.88306,-15.7424 -73.65235,-8.59374 -23.77052,-7.15045 -50.39456,-4.83835 -73.65625,8.59179 -4.13994,2.3902 -8.02683,5.04974 -11.65429,7.94141 10.65865,-37.33841 44.80352,-64.62697 85.30664,-64.62696 z m -27.33399,47.88477 c 7.08275,-0.0352 14.11806,0.77475 20.95508,2.38281 -19.12749,7.2967 -35.93562,20.92165 -46.93359,39.97071 -10.99867,19.05022 -14.3941,40.42041 -11.14844,60.63476 -15.06111,-16.018 -24.29883,-37.64915 -24.29883,-61.4707 0,-6.35324 0.66106,-12.55034 1.91016,-18.52735 4.55121,-4.06959 9.58657,-7.73982 15.08789,-10.91601 14.03933,-8.10561 29.33916,-11.99932 44.42773,-12.07422 z m 54.67188,0 c 15.08857,0.0749 30.38839,3.97055 44.42773,12.07617 5.50039,3.17565 10.53338,6.8453 15.08398,10.91406 1.2491,5.97701 1.91016,12.17411 1.91016,18.52735 0,23.81908 -9.23463,45.44929 -24.29297,61.4668 3.24482,-20.21346 -0.15228,-41.58353 -11.15039,-60.63282 -10.99686,-19.04713 -27.80263,-32.67152 -46.92773,-39.96875 6.83514,-1.60712 13.86853,-2.41796 20.94922,-2.38281 z m -27.33203,4.13281 c 20.41052,6.42438 38.52743,20.17403 50.0371,40.10938 11.51121,19.93798 14.35901,42.50595 9.71485,63.39648 -15.76917,14.46497 -36.73745,23.28125 -59.75781,23.28125 -23.01941,0 -43.98497,-8.81543 -59.75391,-23.27929 -4.64417,-20.89053 -1.79635,-43.45852 9.71484,-63.39649 11.51112,-19.93784 29.63128,-33.68798 50.04493,-40.11133 z m 91.48242,23.3125 c 27.01261,27.89962 33.57558,71.12141 13.32226,106.20118 -20.25329,35.07972 -60.96475,51.00623 -98.63281,41.5625 4.31972,-1.69604 8.56743,-3.73388 12.70898,-6.125 C 555.1874,528.0554 570.5033,506.15861 576.19727,482 c 18.07642,-17.01054 29.38281,-41.22286 29.38281,-68.08203 0,-4.78273 -0.3596,-9.48282 -1.05078,-14.07227 z m -182.97657,0.004 c -0.6908,4.58823 -1.05078,9.28696 -1.05078,14.06836 0,26.86038 11.30886,51.07332 29.38672,68.08398 5.69412,24.15831 21.00817,46.05555 44.26758,59.48438 4.13972,2.39007 8.38733,4.42745 12.70508,6.12305 -37.66638,9.44054 -78.37473,-6.48657 -98.62695,-41.56446 -20.25211,-35.07767 -13.69021,-78.29552 13.31835,-106.19531 z m 149.57032,86.58984 c -6.34234,21.04985 -20.45589,39.86185 -41.08399,51.77149 -5.50202,3.17659 -11.19925,5.70262 -17,7.60937 -5.79857,-1.90651 -11.49214,-4.43197 -16.99218,-7.60742 -20.62751,-11.90929 -34.74139,-30.72041 -41.08399,-51.76953 15.88212,12.91413 36.08444,20.65625 58.07813,20.65625 21.99563,1e-5 42.19926,-7.74394 58.08203,-20.66016 z"
       transform="scale(0.26458333)" />
    <path
       style="fill:#ffffff;fill-opacity:1;stroke:#ffffff;stroke-width:3.77953;stroke-linecap:round;stroke-linejoin:bevel;stroke-miterlimit:4;stroke-dasharray:none;stroke-opacity:0.75384611"
       d="m 507.11249,503.02098 c -11.867,-0.88752 -22.57227,-3.79705 -33.07256,-8.98862 -6.7424,-3.3336 -13.4502,-7.77758 -18.76355,-12.43103 l -1.94315,-1.70182 -0.49261,-2.70249 c -1.78871,-9.81295 -2.0226,-19.14508 -0.71417,-28.49552 4.59588,-32.84353 27.21874,-60.36149 58.56453,-71.23664 l 2.32833,-0.80779 2.66152,0.91773 c 17.4959,6.03284 33.182,18.01679 43.53992,33.26385 8.47988,12.48255 13.31008,25.46909 15.09503,40.58466 0.27372,2.31796 0.38998,5.08313 0.39183,9.31941 0.003,6.43642 -0.30174,10.01342 -1.35469,15.91119 l -0.54784,3.06859 -1.53534,1.43256 c -2.22685,2.07777 -5.77211,4.80617 -9.33353,7.18298 -11.88592,7.9324 -25.126,12.755 -39.36714,14.33917 -3.94942,0.43933 -11.83403,0.61469 -15.45658,0.34377 z"
       id="path2222"
       transform="scale(0.26458333)" />
    <path
       style="fill:#ffff00;fill-opacity:1;stroke:#ffff00;stroke-width:3.77953;stroke-linecap:round;stroke-linejoin:bevel;stroke-miterlimit:4;stroke-dasharray:none;stroke-opacity:0.75384611"
       d="m 446.30065,472.63506 c -2.52743,-2.88316 -6.18168,-7.83432 -8.33377,-11.29145 -11.56041,-18.57073 -15.8754,-40.3399 -12.32901,-62.19994 l 0.57157,-3.52319 1.27351,-1.13652 c 3.94204,-3.51798 9.84817,-7.63545 15.30338,-10.66879 11.34851,-6.31026 23.49147,-9.94671 36.93617,-11.06127 3.95862,-0.32816 12.8018,-0.14137 16.70676,0.3529 3.13107,0.39631 9.04907,1.43474 9.395,1.64854 0.12086,0.0747 -0.53714,0.43393 -1.46222,0.79831 -0.92508,0.36438 -3.21625,1.40447 -5.0915,2.3113 -18.36522,8.8811 -33.12546,23.43196 -42.22121,41.62232 -4.83439,9.66816 -7.80027,19.60897 -9.18918,30.79952 -0.5835,4.70138 -0.57536,16.2608 0.0147,20.86777 0.22907,1.7885 0.36399,3.30432 0.29981,3.36849 -0.0642,0.0642 -0.90748,-0.78542 -1.87401,-1.88799 z"
       id="path2483"
       transform="scale(0.26458333)" />
    <path
       style="fill:#ff00ff;fill-opacity:1;stroke:#ff00ff;stroke-width:3.77953;stroke-linecap:round;stroke-linejoin:bevel;stroke-miterlimit:4;stroke-dasharray:none;stroke-opacity:0.7494505"
       d="m 577.80365,474.59961 c 0,-0.14201 0.17483,-1.55347 0.38851,-3.13657 0.302,-2.23741 0.38986,-4.62464 0.39458,-10.72032 0.007,-8.66571 -0.26832,-11.67042 -1.71643,-18.75248 -4.97715,-24.34103 -20.04065,-46.00884 -41.18576,-59.24287 -3.43098,-2.14734 -9.80639,-5.46651 -13.28595,-6.91694 -1.15641,-0.48203 -2.10255,-0.93704 -2.10255,-1.01113 0,-0.16058 4.42185,-1.01468 7.61464,-1.47079 6.37392,-0.91056 15.92678,-1.02059 22.16202,-0.25526 17.54452,2.15344 34.23915,9.32773 47.27656,20.31644 2.73942,2.30895 2.56581,1.91653 3.39152,7.66605 1.37708,9.58881 1.18116,19.62678 -0.5701,29.20841 -2.53616,13.87609 -8.63125,27.44764 -17.36638,38.66861 -2.16745,2.78426 -5.00066,5.98359 -5.00066,5.64685 z"
       id="path2522"
       transform="scale(0.26458333)" />
    <path
       style="fill:#ff0000;fill-opacity:1;stroke:#ff0000;stroke-width:3.77953;stroke-linecap:round;stroke-linejoin:bevel;stroke-miterlimit:4;stroke-dasharray:none;stroke-opacity:0.7472527"
       d="m 428.01112,388.63582 c 0,-0.28681 2.31992,-6.92083 3.08187,-8.81289 1.38892,-3.44893 4.68787,-9.8433 6.88373,-13.34278 8.90763,-14.19578 21.18436,-25.31937 36.06321,-32.67581 18.96819,-9.37829 40.05175,-11.62554 60.62514,-6.4619 28.69057,7.20095 52.33013,28.96785 62.05612,57.1402 1.61059,4.66526 1.66889,4.46851 -0.78497,2.64905 -20.63548,-15.30051 -46.22511,-21.49674 -71.43507,-17.29716 -3.28369,0.54701 -7.11562,1.39329 -9.66551,2.13462 -1.37539,0.39986 -2.02336,0.48897 -2.43036,0.33423 -0.30523,-0.11605 -1.74883,-0.51052 -3.20801,-0.87659 -20.8349,-5.22706 -42.61553,-3.26337 -61.97061,5.58713 -6.37513,2.91516 -12.37482,6.54147 -18.4768,11.16771 -0.40631,0.30804 -0.73874,0.51242 -0.73874,0.45419 z"
       id="path2561"
       transform="scale(0.26458333)" />
    <path
       style="fill:#0000ff;fill-opacity:1;stroke:#0000ff;stroke-width:3.77953;stroke-linecap:round;stroke-linejoin:bevel;stroke-miterlimit:4;stroke-dasharray:none;stroke-opacity:0.74505496"
       d="m 532.91135,549.83209 c -4.09325,-0.40877 -12.28342,-1.80046 -12.92337,-2.19597 -0.10698,-0.0661 0.7415,-0.51212 1.88551,-0.99111 10.54546,-4.41539 21.15613,-11.58178 29.57869,-19.97728 11.69261,-11.65504 20.21769,-26.61089 24.42736,-42.85378 0.40143,-1.54892 0.48518,-1.66648 3.15744,-4.4324 12.90782,-13.36024 21.23075,-29.11905 24.79005,-46.93802 1.90038,-9.51392 2.32927,-18.54309 1.33618,-28.13018 -0.19109,-1.8448 -0.30831,-3.47159 -0.26048,-3.61508 0.0478,-0.14349 1.11618,0.91767 2.37411,2.35814 20.12947,23.05051 27.20751,54.34344 18.82838,83.2427 -5.73378,19.77556 -18.3388,37.13704 -35.23166,48.52621 -11.64093,7.84831 -24.07541,12.58258 -38.30529,14.58425 -2.86908,0.40358 -4.81886,0.50709 -10.56481,0.56087 -3.87551,0.0363 -7.96696,-0.026 -9.09211,-0.13835 z"
       id="path2600"
       transform="scale(0.26458333)" />
    <path
       style="fill:#00ffff;fill-opacity:1;stroke:#00ffff;stroke-width:3.77953;stroke-linecap:round;stroke-linejoin:bevel;stroke-miterlimit:4;stroke-dasharray:none;stroke-opacity:0.7472527"
       d="m 510.73303,544.85088 c -19.23923,-6.83196 -36.10574,-20.64499 -46.63587,-38.193 -3.4836,-5.80527 -7.17992,-13.99464 -8.68891,-19.25067 -0.10642,-0.37067 0.58899,0.0482 2.71696,1.63648 13.77143,10.27887 30.12661,16.42772 47.50981,17.86166 4.64995,0.38357 14.97592,0.14307 19.33684,-0.45039 16.0805,-2.1883 30.8842,-8.25109 43.64236,-17.87354 1.08578,-0.81892 2.014,-1.44909 2.0627,-1.40039 0.12313,0.12314 -1.35415,4.33288 -2.5275,7.2025 -4.62806,11.31863 -11.31962,21.2732 -20.03397,29.80313 -3.37757,3.3061 -4.22718,4.07029 -6.99099,6.28812 -7.52209,6.03613 -16.47317,11.00937 -26.18633,14.5492 l -1.83472,0.66864 z"
       id="path2639"
       transform="scale(0.26458333)" />
    <path
       style="fill:#00ff00;fill-opacity:1;stroke:#00ff00;stroke-width:1;stroke-linecap:round;stroke-linejoin:bevel;stroke-miterlimit:4;stroke-dasharray:none;stroke-opacity:0.7472527"
       d="m 125.99366,145.38195 c -8.7056,-0.93806 -16.02482,-6.4069 -19.32623,-14.44034 -1.55683,-3.78829 -2.07306,-8.04133 -1.4765,-12.16443 0.57262,-3.95769 2.24921,-7.90475 4.68763,-11.03579 0.46766,-0.60049 1.59783,-1.91073 1.62196,-1.88039 0.007,0.009 -0.0249,0.31373 -0.0708,0.67758 -0.19747,1.56312 -0.19294,4.25769 0.01,5.92384 0.6578,5.40149 3.01469,10.3136 6.86825,14.31449 l 0.72507,0.75279 0.16283,0.60037 c 2.00767,7.40247 7.08846,13.3134 14.06508,16.36315 0.39155,0.17117 0.68925,0.32516 0.66155,0.34222 -0.19232,0.11843 -2.3679,0.4774 -3.53852,0.58387 -0.92952,0.0845 -3.45876,0.063 -4.39025,-0.0374 z"
       id="path2678" />
  </g>
</svg>
